<?xml version="1.0" encoding="utf-8"?>
<!-- Generator: Adobe Illustrator 16.0.0, SVG Export Plug-In . SVG Version: 6.00 Build 0)  -->
<!DOCTYPE svg PUBLIC "-//W3C//DTD SVG 1.1//EN" "http://www.w3.org/Graphics/SVG/1.1/DTD/svg11.dtd">
<svg version="1.1" id="Layer_1" xmlns="http://www.w3.org/2000/svg" xmlns:xlink="http://www.w3.org/1999/xlink" x="0px" y="0px"
	 width="790.5px" height="523px" viewBox="0 0 790.5 523" enable-background="new 0 0 790.5 523" xml:space="preserve">
<g>
	<path fill="#5A5B5B" d="M58.807,271.453l-4.114-8.496h-2.815v8.496h-6.84v-25.201h11.268c1.463,0,2.802,0.15,4.014,0.45
		c1.212,0.3,2.25,0.774,3.114,1.422c0.864,0.648,1.53,1.494,1.998,2.538c0.468,1.044,0.702,2.31,0.702,3.798
		c0,1.896-0.409,3.444-1.227,4.644c-0.818,1.201-1.925,2.112-3.32,2.736l5.051,9.612H58.807z M58.48,252.697
		c-0.47-0.504-1.26-0.756-2.37-0.756h-4.233v5.508h4.124c1.158,0,1.978-0.24,2.46-0.72c0.483-0.479,0.724-1.175,0.724-2.088
		C59.186,253.849,58.951,253.201,58.48,252.697z"/>
	<path fill="#5A5B5B" d="M70.813,271.453v-25.201h19.296v5.868H77.725v3.384h7.452v5.76h-7.452v4.319h12.636v5.869H70.813z"/>
	<path fill="#5A5B5B" d="M115.741,264.703c-0.576,1.619-1.44,2.928-2.592,3.924c-1.152,0.996-2.574,1.716-4.266,2.16
		c-1.692,0.443-3.654,0.666-5.886,0.666h-8.172v-25.201h8.82c1.968,0,3.756,0.205,5.364,0.612c1.607,0.408,2.97,1.098,4.086,2.07
		c1.116,0.972,1.98,2.25,2.592,3.834s0.918,3.564,0.918,5.94S116.317,263.082,115.741,264.703z M109.135,255.829
		c-0.205-0.84-0.535-1.524-0.99-2.052c-0.456-0.528-1.056-0.918-1.8-1.17c-0.744-0.252-1.656-0.378-2.736-0.378h-1.728v13.248h1.512
		c1.08,0,2.003-0.113,2.772-0.342c0.768-0.229,1.398-0.6,1.89-1.116c0.492-0.516,0.846-1.2,1.062-2.052
		c0.216-0.852,0.324-1.902,0.324-3.15C109.441,257.665,109.339,256.669,109.135,255.829z"/>
	<path fill="#5A5B5B" d="M146.232,271.453v-9.937h-7.848v9.937h-7.128v-25.201h7.128v9.18h7.848v-9.18h7.128v25.201H146.232z"/>
	<path fill="#5A5B5B" d="M174.744,271.453l-1.368-4.429h-7.56l-1.368,4.429h-7.488l9.144-25.201h7.056l9.144,25.201H174.744z
		 M171.216,259.825c-0.216-0.816-0.408-1.524-0.576-2.124c-0.168-0.6-0.318-1.14-0.45-1.62c-0.132-0.48-0.246-0.918-0.342-1.314
		c-0.096-0.396-0.18-0.81-0.252-1.242c-0.072,0.432-0.157,0.853-0.252,1.26c-0.096,0.408-0.21,0.852-0.342,1.332
		c-0.132,0.48-0.282,1.021-0.45,1.62c-0.168,0.6-0.36,1.296-0.576,2.088l-0.468,1.656h4.176L171.216,259.825z"/>
	<path fill="#5A5B5B" d="M195.48,252.336v19.117h-6.984v-19.117h-7.056v-6.084h21.096v6.084H195.48z"/>
	<path fill="#5A5B5B" d="M210.749,250.003c-0.128,0.308-0.306,0.575-0.532,0.802c-0.227,0.227-0.494,0.404-0.802,0.532
		c-0.308,0.128-0.642,0.193-1.001,0.193s-0.693-0.064-1.001-0.193c-0.308-0.128-0.575-0.305-0.801-0.532
		c-0.227-0.227-0.404-0.494-0.532-0.802c-0.128-0.308-0.192-0.642-0.192-1.001c0-0.359,0.064-0.693,0.192-1.001
		c0.128-0.308,0.306-0.575,0.532-0.801c0.226-0.227,0.494-0.404,0.801-0.532c0.308-0.128,0.642-0.192,1.001-0.192
		s0.693,0.064,1.001,0.192c0.308,0.128,0.575,0.306,0.802,0.532c0.226,0.227,0.404,0.494,0.532,0.801
		c0.128,0.308,0.192,0.642,0.192,1.001C210.941,249.362,210.877,249.696,210.749,250.003z M210.375,248.166
		c-0.107-0.259-0.257-0.484-0.448-0.675s-0.417-0.341-0.675-0.448c-0.259-0.107-0.538-0.161-0.837-0.161
		c-0.303,0-0.583,0.054-0.84,0.161c-0.257,0.107-0.48,0.257-0.672,0.448s-0.341,0.417-0.448,0.675
		c-0.107,0.259-0.161,0.538-0.161,0.836c0,0.304,0.053,0.583,0.161,0.84c0.107,0.256,0.257,0.48,0.448,0.672
		s0.415,0.341,0.672,0.448c0.257,0.107,0.537,0.161,0.84,0.161c0.299,0,0.578-0.054,0.837-0.161
		c0.259-0.107,0.484-0.256,0.675-0.448s0.341-0.416,0.448-0.672c0.107-0.257,0.161-0.537,0.161-0.84
		C210.535,248.704,210.481,248.425,210.375,248.166z M209.401,248.939c-0.107,0.136-0.25,0.229-0.427,0.28l0.567,1.113h-0.551
		l-0.537-1.064h-0.53v1.064h-0.469v-2.758h1.207c0.121,0,0.236,0.016,0.346,0.049c0.109,0.033,0.205,0.083,0.286,0.15
		c0.082,0.068,0.146,0.154,0.195,0.259s0.074,0.23,0.074,0.375C209.562,248.627,209.509,248.804,209.401,248.939z M208.967,248.127
		c-0.084-0.065-0.189-0.098-0.315-0.098h-0.728v0.784h0.728c0.126,0,0.231-0.031,0.315-0.094s0.126-0.162,0.126-0.297
		C209.093,248.291,209.051,248.193,208.967,248.127z"/>
	<path fill="#5A5B5B" d="M234.284,265.639c-0.432,1.309-1.086,2.424-1.962,3.348c-0.876,0.924-1.98,1.633-3.312,2.125
		c-1.332,0.49-2.886,0.737-4.662,0.737c-1.68,0-3.132-0.204-4.356-0.612c-1.224-0.408-2.274-0.99-3.15-1.746
		s-1.596-1.674-2.16-2.754c-0.564-1.08-1.002-2.279-1.314-3.6l6.84-1.8c0.432,1.441,0.948,2.527,1.548,3.258
		c0.6,0.732,1.5,1.099,2.7,1.099c1.128,0,1.968-0.354,2.52-1.062c0.552-0.708,0.828-1.674,0.828-2.898v-15.48h7.128v14.94
		C234.932,262.849,234.716,264.331,234.284,265.639z"/>
	<path fill="#5A5B5B" d="M259.16,269.332c-1.561,1.414-3.937,2.121-7.128,2.121h-12.096v-25.201h12.167
		c3.12,0,5.37,0.565,6.75,1.696s2.07,2.753,2.07,4.869c0,1.371-0.294,2.417-0.882,3.138c-0.589,0.721-1.303,1.323-2.143,1.804
		c1.152,0.479,2.04,1.168,2.664,2.066c0.624,0.899,0.937,2.067,0.937,3.504C261.5,265.918,260.719,267.918,259.16,269.332z
		 M253.616,252.342c-0.312-0.388-0.889-0.582-1.729-0.582h-5.256v3.996h5.256c0.815,0,1.386-0.181,1.71-0.545
		c0.324-0.363,0.486-0.848,0.486-1.453C254.083,253.202,253.927,252.73,253.616,252.342z M254.047,261.697
		c-0.408-0.432-1.032-0.648-1.872-0.648h-5.544v4.896h5.508c0.864,0,1.5-0.234,1.908-0.703c0.408-0.468,0.612-1.062,0.612-1.781
		C254.66,262.717,254.456,262.129,254.047,261.697z"/>
	<path fill="#5A5B5B" d="M286.916,264.379c-0.575,1.619-1.38,2.982-2.411,4.086c-1.032,1.104-2.269,1.943-3.708,2.52
		c-1.44,0.576-3.013,0.864-4.717,0.864s-3.271-0.282-4.697-0.847c-1.429-0.562-2.659-1.391-3.69-2.483
		c-1.032-1.092-1.83-2.448-2.394-4.067c-0.564-1.621-0.847-3.475-0.847-5.562s0.288-3.942,0.864-5.562s1.38-2.982,2.412-4.086
		c1.031-1.104,2.268-1.944,3.708-2.52c1.439-0.576,3.012-0.864,4.716-0.864s3.27,0.283,4.698,0.846
		c1.428,0.564,2.651,1.392,3.672,2.484c1.02,1.092,1.818,2.448,2.394,4.068c0.576,1.62,0.864,3.474,0.864,5.562
		C287.78,260.905,287.492,262.759,286.916,264.379z M279.374,253.705c-0.779-1.176-1.878-1.764-3.294-1.764
		s-2.502,0.576-3.258,1.728c-0.756,1.152-1.134,2.868-1.134,5.148c0,2.281,0.39,4.009,1.17,5.184
		c0.779,1.177,1.878,1.765,3.294,1.765s2.502-0.576,3.258-1.728c0.756-1.152,1.134-2.868,1.134-5.148
		C280.543,256.609,280.154,254.881,279.374,253.705z"/>
	<path fill="#5A5B5B" d="M310.585,267.42c-0.517,1.033-1.236,1.873-2.16,2.521c-0.924,0.648-2.022,1.128-3.294,1.44
		c-1.272,0.312-2.664,0.468-4.176,0.468c-2.04,0-3.99-0.294-5.851-0.882c-1.859-0.588-3.45-1.314-4.77-2.178l3.384-5.473
		c0.456,0.312,0.99,0.619,1.603,0.918c0.611,0.301,1.247,0.57,1.907,0.811s1.326,0.432,1.998,0.576
		c0.672,0.144,1.297,0.215,1.872,0.215c1.248,0,2.106-0.119,2.574-0.359s0.702-0.66,0.702-1.26c0-0.24-0.066-0.455-0.198-0.648
		c-0.132-0.191-0.359-0.378-0.684-0.558c-0.324-0.181-0.763-0.36-1.314-0.54s-1.248-0.365-2.088-0.558
		c-1.512-0.36-2.832-0.744-3.96-1.152c-1.128-0.408-2.064-0.918-2.808-1.53c-0.744-0.612-1.303-1.35-1.674-2.214
		c-0.373-0.864-0.559-1.932-0.559-3.204c0-1.175,0.234-2.255,0.702-3.24c0.468-0.984,1.134-1.824,1.998-2.52
		c0.864-0.696,1.908-1.236,3.132-1.62c1.225-0.384,2.592-0.576,4.104-0.576c2.159,0,4.037,0.252,5.634,0.756
		c1.596,0.504,3.065,1.224,4.41,2.16l-3.385,5.472c-1.128-0.768-2.256-1.355-3.384-1.764c-1.128-0.408-2.34-0.612-3.636-0.612
		c-1.057,0-1.752,0.144-2.088,0.432c-0.337,0.288-0.504,0.66-0.504,1.116c0,0.24,0.065,0.45,0.198,0.63
		c0.131,0.18,0.354,0.348,0.666,0.504c0.312,0.156,0.731,0.312,1.26,0.468c0.527,0.156,1.199,0.33,2.016,0.522
		c1.584,0.384,2.952,0.805,4.104,1.26c1.151,0.456,2.1,0.996,2.844,1.62c0.743,0.625,1.296,1.368,1.656,2.232
		c0.359,0.864,0.54,1.884,0.54,3.06C311.36,265.152,311.101,266.389,310.585,267.42z"/>
	<path fill="#5A5B5B" d="M334.489,267.42c-0.517,1.033-1.236,1.873-2.16,2.521c-0.924,0.648-2.022,1.128-3.294,1.44
		c-1.272,0.312-2.664,0.468-4.176,0.468c-2.04,0-3.99-0.294-5.851-0.882c-1.859-0.588-3.45-1.314-4.77-2.178l3.384-5.473
		c0.456,0.312,0.99,0.619,1.603,0.918c0.611,0.301,1.247,0.57,1.907,0.811s1.326,0.432,1.998,0.576
		c0.672,0.144,1.297,0.215,1.872,0.215c1.248,0,2.106-0.119,2.574-0.359s0.702-0.66,0.702-1.26c0-0.24-0.066-0.455-0.198-0.648
		c-0.132-0.191-0.359-0.378-0.684-0.558c-0.324-0.181-0.763-0.36-1.314-0.54s-1.248-0.365-2.088-0.558
		c-1.512-0.36-2.832-0.744-3.96-1.152c-1.128-0.408-2.064-0.918-2.808-1.53c-0.744-0.612-1.303-1.35-1.674-2.214
		c-0.373-0.864-0.559-1.932-0.559-3.204c0-1.175,0.234-2.255,0.702-3.24c0.468-0.984,1.134-1.824,1.998-2.52
		c0.864-0.696,1.908-1.236,3.132-1.62c1.225-0.384,2.592-0.576,4.104-0.576c2.159,0,4.037,0.252,5.634,0.756
		c1.596,0.504,3.065,1.224,4.41,2.16l-3.385,5.472c-1.128-0.768-2.256-1.355-3.384-1.764c-1.128-0.408-2.34-0.612-3.636-0.612
		c-1.057,0-1.752,0.144-2.088,0.432c-0.337,0.288-0.504,0.66-0.504,1.116c0,0.24,0.065,0.45,0.198,0.63
		c0.131,0.18,0.354,0.348,0.666,0.504c0.312,0.156,0.731,0.312,1.26,0.468c0.527,0.156,1.199,0.33,2.016,0.522
		c1.584,0.384,2.952,0.805,4.104,1.26c1.151,0.456,2.1,0.996,2.844,1.62c0.743,0.625,1.296,1.368,1.656,2.232
		c0.359,0.864,0.54,1.884,0.54,3.06C335.263,265.152,335.004,266.389,334.489,267.42z"/>
	<path fill="#5A5B5B" d="M341.639,250.003c-0.129,0.308-0.306,0.575-0.532,0.802s-0.493,0.404-0.802,0.532
		c-0.308,0.128-0.642,0.193-1.001,0.193s-0.692-0.064-1.001-0.193c-0.308-0.128-0.575-0.305-0.802-0.532
		c-0.226-0.227-0.403-0.494-0.531-0.802c-0.129-0.308-0.192-0.642-0.192-1.001c0-0.359,0.063-0.693,0.192-1.001
		c0.128-0.308,0.306-0.575,0.531-0.801c0.227-0.227,0.494-0.404,0.802-0.532c0.309-0.128,0.642-0.192,1.001-0.192
		s0.693,0.064,1.001,0.192c0.309,0.128,0.575,0.306,0.802,0.532s0.403,0.494,0.532,0.801c0.128,0.308,0.192,0.642,0.192,1.001
		C341.832,249.362,341.767,249.696,341.639,250.003z M341.264,248.166c-0.107-0.259-0.257-0.484-0.447-0.675
		c-0.191-0.191-0.417-0.341-0.676-0.448c-0.259-0.107-0.538-0.161-0.837-0.161c-0.303,0-0.583,0.054-0.84,0.161
		c-0.257,0.107-0.48,0.257-0.672,0.448s-0.341,0.417-0.448,0.675c-0.107,0.259-0.161,0.538-0.161,0.836
		c0,0.304,0.054,0.583,0.161,0.84c0.107,0.256,0.257,0.48,0.448,0.672s0.415,0.341,0.672,0.448c0.257,0.107,0.537,0.161,0.84,0.161
		c0.299,0,0.578-0.054,0.837-0.161c0.259-0.107,0.484-0.256,0.676-0.448c0.19-0.191,0.34-0.416,0.447-0.672
		c0.107-0.257,0.161-0.537,0.161-0.84C341.425,248.704,341.372,248.425,341.264,248.166z M340.292,248.939
		c-0.107,0.136-0.249,0.229-0.427,0.28l0.567,1.113h-0.551l-0.537-1.064h-0.53v1.064h-0.469v-2.758h1.207
		c0.121,0,0.236,0.016,0.346,0.049s0.204,0.083,0.286,0.15c0.081,0.068,0.146,0.154,0.195,0.259s0.073,0.23,0.073,0.375
		C340.453,248.627,340.399,248.804,340.292,248.939z M339.857,248.127c-0.084-0.065-0.188-0.098-0.314-0.098h-0.729v0.784h0.729
		c0.126,0,0.23-0.031,0.314-0.094c0.085-0.063,0.127-0.162,0.127-0.297C339.984,248.291,339.942,248.193,339.857,248.127z"/>
	<path fill="#5A5B5B" d="M371.516,264.559c-0.732,1.596-1.704,2.904-2.916,3.924c-1.212,1.021-2.592,1.771-4.14,2.25
		c-1.548,0.48-3.126,0.721-4.734,0.721h-7.523v-25.201h7.884c1.8,0,3.462,0.222,4.986,0.666c1.523,0.444,2.844,1.17,3.96,2.178
		c1.115,1.008,1.991,2.31,2.628,3.906c0.636,1.597,0.954,3.546,0.954,5.85C372.615,261.061,372.249,262.963,371.516,264.559z
		 M365.661,253.102c-1.181-1.278-3.107-1.917-5.78-1.917h-2.674v15.336h2.493c1.324,0,2.475-0.185,3.449-0.556
		c0.976-0.369,1.776-0.889,2.402-1.559c0.626-0.668,1.096-1.475,1.409-2.418c0.313-0.943,0.47-1.988,0.47-3.135
		C367.43,256.297,366.84,254.379,365.661,253.102z"/>
	<path fill="#5A5B5B" d="M393.243,271.453l-1.979-5.617h-9.216l-1.98,5.617h-5.399l9.647-25.201h4.896l9.576,25.201H393.243z
		 M387.916,256.477c-0.265-0.744-0.511-1.463-0.738-2.16c-0.229-0.696-0.402-1.283-0.522-1.764c-0.12,0.48-0.294,1.068-0.521,1.764
		c-0.229,0.697-0.475,1.417-0.738,2.16l-1.62,4.572h5.76L387.916,256.477z"/>
	<path fill="#5A5B5B" d="M410.668,251.185v20.269h-5.004v-20.269h-7.236v-4.932h19.475v4.932H410.668z"/>
	<path fill="#5A5B5B" d="M436.154,271.453l-1.979-5.617h-9.217l-1.98,5.617h-5.398l9.646-25.201h4.896l9.576,25.201H436.154z
		 M430.828,256.477c-0.266-0.744-0.512-1.463-0.738-2.16c-0.229-0.696-0.402-1.283-0.523-1.764c-0.119,0.48-0.293,1.068-0.521,1.764
		c-0.229,0.697-0.475,1.417-0.738,2.16l-1.619,4.572h5.76L430.828,256.477z"/>
	<path fill="#5A5B5B" d="M465.279,271.453h-4.896l-8.963-25.201h5.578l4.754,14.58c0.119,0.36,0.238,0.732,0.359,1.116
		c0.119,0.384,0.234,0.762,0.342,1.133c0.107,0.373,0.203,0.727,0.287,1.062s0.15,0.612,0.199,0.828
		c0.119-0.48,0.281-1.104,0.486-1.872c0.203-0.768,0.426-1.524,0.666-2.268l4.643-14.58h5.508L465.279,271.453z"/>
	<path fill="#5A5B5B" d="M479.281,271.453v-25.201h5.004v25.201H479.281z"/>
	<path fill="#5A5B5B" d="M505.766,271.453l-4.512-9.072h-5.088v9.072h-5.004v-25.201h11.736c1.176,0,2.291,0.162,3.348,0.486
		c1.057,0.324,1.98,0.822,2.771,1.494c0.793,0.672,1.416,1.506,1.873,2.502c0.455,0.996,0.684,2.166,0.684,3.51
		c0,1.896-0.402,3.45-1.205,4.662c-0.805,1.212-2.012,2.13-3.619,2.754l4.824,9.792H505.766z M505.434,251.918
		c-0.639-0.489-1.525-0.734-2.656-0.734h-6.611v6.444h6.611c2.408,0,3.613-1.085,3.613-3.258
		C506.391,253.226,506.07,252.408,505.434,251.918z"/>
	<path fill="#5A5B5B" d="M526.623,251.185v20.269h-5.004v-20.269h-7.236v-4.932h19.475v4.932H526.623z"/>
	<path fill="#5A5B5B" d="M556.254,268.843c-1.795,2.004-4.299,3.006-7.51,3.006c-1.51,0-2.893-0.252-4.15-0.756
		s-2.33-1.242-3.217-2.214c-0.887-0.973-1.576-2.166-2.066-3.582s-0.736-3.048-0.736-4.896v-14.148h5.004v14.076
		c0,2.041,0.457,3.648,1.373,4.824c0.914,1.176,2.18,1.764,3.793,1.764s2.885-0.575,3.811-1.728
		c0.928-1.151,1.391-2.747,1.391-4.788v-14.148h5.004v14.076C558.949,264,558.051,266.839,556.254,268.843z"/>
	<path fill="#5A5B5B" d="M580.803,271.453l-1.98-5.617h-9.215l-1.98,5.617h-5.4l9.648-25.201h4.896l9.574,25.201H580.803z
		 M575.475,256.477c-0.264-0.744-0.51-1.463-0.738-2.16c-0.229-0.696-0.402-1.283-0.521-1.764c-0.121,0.48-0.295,1.068-0.521,1.764
		c-0.229,0.697-0.475,1.417-0.738,2.16l-1.621,4.572h5.76L575.475,256.477z"/>
	<path fill="#5A5B5B" d="M591.027,271.453v-25.201h5.004v20.268h12.635v4.933H591.027z"/>
	<path fill="#5A5B5B" d="M613.705,271.453v-25.201h5.004v25.201H613.705z"/>
	<path fill="#5A5B5B" d="M624.795,271.453v-4.465l10.836-12.924c0.191-0.239,0.42-0.516,0.684-0.828s0.533-0.624,0.811-0.936
		c0.275-0.312,0.533-0.6,0.773-0.864c0.24-0.264,0.443-0.479,0.611-0.648c-0.264,0-0.605,0.006-1.025,0.018
		c-0.42,0.012-0.871,0.024-1.35,0.036c-0.48,0.012-0.973,0.018-1.477,0.018c-0.48,0-0.9,0-1.26,0h-7.885v-4.608h18.973v4.464
		l-10.729,12.924c-0.191,0.24-0.42,0.517-0.684,0.828c-0.264,0.312-0.535,0.624-0.811,0.936c-0.275,0.312-0.533,0.601-0.773,0.864
		c-0.24,0.265-0.445,0.48-0.611,0.647c0.238,0,0.576-0.005,1.008-0.018c0.432-0.012,0.887-0.023,1.367-0.035
		c0.48-0.013,0.959-0.019,1.439-0.019c0.504,0,0.938,0,1.297,0h8.676v4.608H624.795z"/>
	<path fill="#5A5B5B" d="M666.77,271.453l-1.979-5.617h-9.217l-1.98,5.617h-5.398l9.646-25.201h4.896l9.576,25.201H666.77z
		 M661.443,256.477c-0.266-0.744-0.512-1.463-0.738-2.16c-0.229-0.696-0.402-1.283-0.523-1.764c-0.119,0.48-0.293,1.068-0.521,1.764
		c-0.229,0.697-0.475,1.417-0.738,2.16l-1.619,4.572h5.76L661.443,256.477z"/>
	<path fill="#5A5B5B" d="M684.195,251.185v20.269h-5.004v-20.269h-7.236v-4.932h19.475v4.932H684.195z"/>
	<path fill="#5A5B5B" d="M696.686,271.453v-25.201h5.004v25.201H696.686z"/>
	<path fill="#5A5B5B" d="M728.564,264.289c-0.541,1.607-1.303,2.97-2.287,4.086c-0.984,1.115-2.16,1.975-3.527,2.574
		c-1.369,0.6-2.869,0.899-4.5,0.899c-1.656,0-3.162-0.294-4.518-0.882c-1.357-0.588-2.521-1.439-3.492-2.557
		c-0.973-1.115-1.729-2.471-2.268-4.067c-0.541-1.597-0.811-3.414-0.811-5.454c0-2.04,0.27-3.864,0.811-5.472
		c0.539-1.607,1.301-2.97,2.285-4.086c0.984-1.116,2.16-1.974,3.527-2.574c1.369-0.6,2.881-0.9,4.537-0.9
		c1.631,0,3.125,0.294,4.48,0.882c1.357,0.588,2.521,1.44,3.492,2.556c0.973,1.116,1.729,2.472,2.27,4.068
		c0.539,1.596,0.809,3.414,0.809,5.454C729.373,260.857,729.104,262.682,728.564,264.289z M722.533,252.949
		c-1.104-1.392-2.543-2.088-4.32-2.088c-1.775,0-3.197,0.684-4.266,2.052s-1.602,3.336-1.602,5.904c0,2.569,0.553,4.549,1.656,5.94
		s2.543,2.088,4.32,2.088c1.775,0,3.197-0.685,4.266-2.052c1.068-1.368,1.602-3.336,1.602-5.904
		C724.189,256.321,723.637,254.341,722.533,252.949z"/>
	<path fill="#5A5B5B" d="M750.398,271.453l-9.254-13.752c-0.311-0.48-0.641-0.99-0.988-1.53c-0.35-0.54-0.607-0.978-0.775-1.314
		c0,0.24,0.006,0.594,0.02,1.062c0.012,0.468,0.018,0.979,0.018,1.53c0,0.528,0.006,1.056,0.018,1.584
		c0.012,0.528,0.018,0.972,0.018,1.332v11.088h-5.004v-25.201h4.859l8.898,13.32c0.311,0.48,0.641,0.99,0.986,1.53
		c0.348,0.54,0.604,0.979,0.771,1.313c0-0.238-0.006-0.593-0.018-1.062c-0.012-0.468-0.018-0.966-0.018-1.494
		c0-0.552-0.006-1.092-0.018-1.62c-0.014-0.528-0.02-0.972-0.02-1.332v-10.656h5.006v25.201H750.398z"/>
</g>
</svg>
